<?xml version="1.0" encoding="utf-8"?>
<!-- Generator: Adobe Illustrator 17.0.2, SVG Export Plug-In . SVG Version: 6.00 Build 0)  -->
<!DOCTYPE svg PUBLIC "-//W3C//DTD SVG 1.1//EN" "http://www.w3.org/Graphics/SVG/1.1/DTD/svg11.dtd">
<svg version="1.1" id="Layer_1" xmlns="http://www.w3.org/2000/svg" xmlns:xlink="http://www.w3.org/1999/xlink" x="0px" y="0px"
	 width="50px" height="50px" viewBox="0 0 50 50" enable-background="new 0 0 50 50" xml:space="preserve">
<g>
	<path fill="#8B8E94" d="M34.357,25.143l-11.571,9.786c-0.643,0.571-1.643,0.5-2.214-0.143c-0.571-0.643-0.5-1.643,0.143-2.214
		l8.786-7.429l-8.786-7.429C20.071,17.143,20,16.143,20.571,15.5s1.571-0.714,2.214-0.143L34.357,25.143z"/>
	<path fill="#8B8E94" d="M50,25c0,13.786-11.286,25-25,25S0,38.714,0,25S11.286,0,25,0S50,11.214,50,25z M3.071,25
		c0,12.071,9.857,21.857,21.857,21.857S46.857,37.071,46.857,25S37,3.143,24.929,3.143S3.071,13,3.071,25z"/>
</g>
</svg>
