<?xml version="1.0" encoding="utf-8"?>
<!-- Generator: Adobe Illustrator 17.0.2, SVG Export Plug-In . SVG Version: 6.00 Build 0)  -->
<!DOCTYPE svg PUBLIC "-//W3C//DTD SVG 1.1//EN" "http://www.w3.org/Graphics/SVG/1.1/DTD/svg11.dtd">
<svg version="1.1" id="Layer_1" xmlns="http://www.w3.org/2000/svg" xmlns:xlink="http://www.w3.org/1999/xlink" x="0px" y="0px"
	 width="50px" height="50px" viewBox="0 0 50 50" enable-background="new 0 0 50 50" xml:space="preserve">
<g>
	<path fill="#8B8E94" d="M15.643,24.857l11.571-9.786c0.643-0.571,1.643-0.5,2.214,0.143c0.571,0.643,0.5,1.643-0.143,2.214
		L20.5,24.857l8.786,7.429c0.643,0.571,0.714,1.571,0.143,2.214s-1.571,0.714-2.214,0.143L15.643,24.857z"/>
	<path fill="#8B8E94" d="M0,25C0,11.214,11.286,0,25,0s25,11.286,25,25S38.714,50,25,50S0,38.786,0,25z M46.929,25
		c0-12.071-9.857-21.857-21.857-21.857S3.143,13,3.143,25S13,46.857,25,46.857S46.929,37.071,46.929,25z"/>
</g>
</svg>
